<svg width="616" height="96" viewBox="0 0 616 96" fill="none" xmlns="http://www.w3.org/2000/svg">
<path d="M123.086 30.1602V35.0625H103.594V30.1602H123.086ZM116.016 22.4453V43.1484H110.684V22.4453H116.016ZM145.703 41.6055V46H126.25V42.25L135.449 32.3867C136.374 31.3581 137.103 30.4531 137.637 29.6719C138.171 28.8776 138.555 28.168 138.789 27.543C139.036 26.9049 139.16 26.2995 139.16 25.7266C139.16 24.8672 139.017 24.1315 138.73 23.5195C138.444 22.8945 138.021 22.4128 137.461 22.0742C136.914 21.7357 136.237 21.5664 135.43 21.5664C134.57 21.5664 133.828 21.7747 133.203 22.1914C132.591 22.6081 132.122 23.1875 131.797 23.9297C131.484 24.6719 131.328 25.5117 131.328 26.4492H125.684C125.684 24.7565 126.087 23.207 126.895 21.8008C127.702 20.3815 128.841 19.2552 130.312 18.4219C131.784 17.5755 133.529 17.1523 135.547 17.1523C137.539 17.1523 139.219 17.4779 140.586 18.1289C141.966 18.7669 143.008 19.6914 143.711 20.9023C144.427 22.1003 144.785 23.5326 144.785 25.1992C144.785 26.1367 144.635 27.0547 144.336 27.9531C144.036 28.8385 143.607 29.724 143.047 30.6094C142.5 31.4818 141.836 32.3672 141.055 33.2656C140.273 34.1641 139.408 35.0951 138.457 36.0586L133.516 41.6055H145.703ZM168.359 29.2812V34.2031C168.359 36.3385 168.132 38.181 167.676 39.7305C167.22 41.2669 166.562 42.5299 165.703 43.5195C164.857 44.4961 163.848 45.2188 162.676 45.6875C161.504 46.1562 160.202 46.3906 158.77 46.3906C157.624 46.3906 156.556 46.2474 155.566 45.9609C154.577 45.6615 153.685 45.1992 152.891 44.5742C152.109 43.9492 151.432 43.1615 150.859 42.2109C150.299 41.2474 149.87 40.1016 149.57 38.7734C149.271 37.4453 149.121 35.9219 149.121 34.2031V29.2812C149.121 27.1458 149.349 25.3164 149.805 23.793C150.273 22.2565 150.931 21 151.777 20.0234C152.637 19.0469 153.652 18.3307 154.824 17.875C155.996 17.4062 157.298 17.1719 158.73 17.1719C159.876 17.1719 160.938 17.3216 161.914 17.6211C162.904 17.9076 163.796 18.3568 164.59 18.9688C165.384 19.5807 166.061 20.3685 166.621 21.332C167.181 22.2826 167.611 23.4219 167.91 24.75C168.21 26.0651 168.359 27.5755 168.359 29.2812ZM162.715 34.9453V28.5195C162.715 27.4909 162.656 26.5924 162.539 25.8242C162.435 25.056 162.272 24.4049 162.051 23.8711C161.829 23.3242 161.556 22.8815 161.23 22.543C160.905 22.2044 160.534 21.957 160.117 21.8008C159.701 21.6445 159.238 21.5664 158.73 21.5664C158.092 21.5664 157.526 21.6901 157.031 21.9375C156.549 22.1849 156.139 22.582 155.801 23.1289C155.462 23.6628 155.202 24.3789 155.02 25.2773C154.85 26.1628 154.766 27.2435 154.766 28.5195V34.9453C154.766 35.974 154.818 36.8789 154.922 37.6602C155.039 38.4414 155.208 39.112 155.43 39.6719C155.664 40.2188 155.938 40.668 156.25 41.0195C156.576 41.3581 156.947 41.6055 157.363 41.7617C157.793 41.918 158.262 41.9961 158.77 41.9961C159.395 41.9961 159.948 41.8724 160.43 41.625C160.924 41.3646 161.341 40.9609 161.68 40.4141C162.031 39.8542 162.292 39.125 162.461 38.2266C162.63 37.3281 162.715 36.2344 162.715 34.9453ZM191.328 29.2812V34.2031C191.328 36.3385 191.1 38.181 190.645 39.7305C190.189 41.2669 189.531 42.5299 188.672 43.5195C187.826 44.4961 186.816 45.2188 185.645 45.6875C184.473 46.1562 183.171 46.3906 181.738 46.3906C180.592 46.3906 179.525 46.2474 178.535 45.9609C177.546 45.6615 176.654 45.1992 175.859 44.5742C175.078 43.9492 174.401 43.1615 173.828 42.2109C173.268 41.2474 172.839 40.1016 172.539 38.7734C172.24 37.4453 172.09 35.9219 172.09 34.2031V29.2812C172.09 27.1458 172.318 25.3164 172.773 23.793C173.242 22.2565 173.9 21 174.746 20.0234C175.605 19.0469 176.621 18.3307 177.793 17.875C178.965 17.4062 180.267 17.1719 181.699 17.1719C182.845 17.1719 183.906 17.3216 184.883 17.6211C185.872 17.9076 186.764 18.3568 187.559 18.9688C188.353 19.5807 189.03 20.3685 189.59 21.332C190.15 22.2826 190.579 23.4219 190.879 24.75C191.178 26.0651 191.328 27.5755 191.328 29.2812ZM185.684 34.9453V28.5195C185.684 27.4909 185.625 26.5924 185.508 25.8242C185.404 25.056 185.241 24.4049 185.02 23.8711C184.798 23.3242 184.525 22.8815 184.199 22.543C183.874 22.2044 183.503 21.957 183.086 21.8008C182.669 21.6445 182.207 21.5664 181.699 21.5664C181.061 21.5664 180.495 21.6901 180 21.9375C179.518 22.1849 179.108 22.582 178.77 23.1289C178.431 23.6628 178.171 24.3789 177.988 25.2773C177.819 26.1628 177.734 27.2435 177.734 28.5195V34.9453C177.734 35.974 177.786 36.8789 177.891 37.6602C178.008 38.4414 178.177 39.112 178.398 39.6719C178.633 40.2188 178.906 40.668 179.219 41.0195C179.544 41.3581 179.915 41.6055 180.332 41.7617C180.762 41.918 181.23 41.9961 181.738 41.9961C182.363 41.9961 182.917 41.8724 183.398 41.625C183.893 41.3646 184.31 40.9609 184.648 40.4141C185 39.8542 185.26 39.125 185.43 38.2266C185.599 37.3281 185.684 36.2344 185.684 34.9453Z" fill="black"/>
<path d="M126.688 77.3828H128.188C128.109 78.1016 127.904 78.7448 127.57 79.3125C127.237 79.8802 126.766 80.3307 126.156 80.6641C125.547 80.9922 124.786 81.1562 123.875 81.1562C123.208 81.1562 122.602 81.0312 122.055 80.7812C121.513 80.5312 121.047 80.1771 120.656 79.7188C120.266 79.2552 119.964 78.7005 119.75 78.0547C119.542 77.4036 119.438 76.6797 119.438 75.8828V74.75C119.438 73.9531 119.542 73.2318 119.75 72.5859C119.964 71.9349 120.268 71.3776 120.664 70.9141C121.065 70.4505 121.547 70.0938 122.109 69.8438C122.672 69.5938 123.305 69.4688 124.008 69.4688C124.867 69.4688 125.594 69.6302 126.188 69.9531C126.781 70.276 127.242 70.724 127.57 71.2969C127.904 71.8646 128.109 72.5234 128.188 73.2734H126.688C126.615 72.7422 126.479 72.2865 126.281 71.9062C126.083 71.5208 125.802 71.224 125.438 71.0156C125.073 70.8073 124.596 70.7031 124.008 70.7031C123.503 70.7031 123.057 70.7995 122.672 70.9922C122.292 71.1849 121.971 71.4583 121.711 71.8125C121.456 72.1667 121.263 72.5911 121.133 73.0859C121.003 73.5807 120.938 74.1302 120.938 74.7344V75.8828C120.938 76.4401 120.995 76.9635 121.109 77.4531C121.229 77.9427 121.409 78.3724 121.648 78.7422C121.888 79.112 122.193 79.4036 122.562 79.6172C122.932 79.8255 123.37 79.9297 123.875 79.9297C124.516 79.9297 125.026 79.8281 125.406 79.625C125.786 79.4219 126.073 79.1302 126.266 78.75C126.464 78.3698 126.604 77.9141 126.688 77.3828ZM129.641 76.8672V76.6875C129.641 76.0781 129.729 75.513 129.906 74.9922C130.083 74.4661 130.339 74.0104 130.672 73.625C131.005 73.2344 131.409 72.9323 131.883 72.7188C132.357 72.5 132.888 72.3906 133.477 72.3906C134.07 72.3906 134.604 72.5 135.078 72.7188C135.557 72.9323 135.964 73.2344 136.297 73.625C136.635 74.0104 136.893 74.4661 137.07 74.9922C137.247 75.513 137.336 76.0781 137.336 76.6875V76.8672C137.336 77.4766 137.247 78.0417 137.07 78.5625C136.893 79.0833 136.635 79.5391 136.297 79.9297C135.964 80.3151 135.56 80.6172 135.086 80.8359C134.617 81.0495 134.086 81.1562 133.492 81.1562C132.898 81.1562 132.365 81.0495 131.891 80.8359C131.417 80.6172 131.01 80.3151 130.672 79.9297C130.339 79.5391 130.083 79.0833 129.906 78.5625C129.729 78.0417 129.641 77.4766 129.641 76.8672ZM131.086 76.6875V76.8672C131.086 77.2891 131.135 77.6875 131.234 78.0625C131.333 78.4323 131.482 78.7604 131.68 79.0469C131.883 79.3333 132.135 79.5599 132.438 79.7266C132.74 79.888 133.091 79.9688 133.492 79.9688C133.888 79.9688 134.234 79.888 134.531 79.7266C134.833 79.5599 135.083 79.3333 135.281 79.0469C135.479 78.7604 135.628 78.4323 135.727 78.0625C135.831 77.6875 135.883 77.2891 135.883 76.8672V76.6875C135.883 76.2708 135.831 75.8776 135.727 75.5078C135.628 75.1328 135.477 74.8021 135.273 74.5156C135.076 74.224 134.826 73.9948 134.523 73.8281C134.227 73.6615 133.878 73.5781 133.477 73.5781C133.081 73.5781 132.732 73.6615 132.43 73.8281C132.133 73.9948 131.883 74.224 131.68 74.5156C131.482 74.8021 131.333 75.1328 131.234 75.5078C131.135 75.8776 131.086 76.2708 131.086 76.6875ZM144.32 79.0469V72.5469H145.773V81H144.391L144.32 79.0469ZM144.594 77.2656L145.195 77.25C145.195 77.8125 145.135 78.3333 145.016 78.8125C144.901 79.2865 144.714 79.6979 144.453 80.0469C144.193 80.3958 143.852 80.6693 143.43 80.8672C143.008 81.0599 142.495 81.1562 141.891 81.1562C141.479 81.1562 141.102 81.0964 140.758 80.9766C140.419 80.8568 140.128 80.6719 139.883 80.4219C139.638 80.1719 139.448 79.8464 139.312 79.4453C139.182 79.0443 139.117 78.5625 139.117 78V72.5469H140.562V78.0156C140.562 78.3958 140.604 78.7109 140.688 78.9609C140.776 79.2057 140.893 79.401 141.039 79.5469C141.19 79.6875 141.357 79.7865 141.539 79.8438C141.727 79.901 141.919 79.9297 142.117 79.9297C142.732 79.9297 143.219 79.8125 143.578 79.5781C143.938 79.3385 144.195 79.0182 144.352 78.6172C144.513 78.2109 144.594 77.7604 144.594 77.2656ZM149.422 73.875V81H147.977V72.5469H149.383L149.422 73.875ZM152.062 72.5L152.055 73.8438C151.935 73.8177 151.82 73.8021 151.711 73.7969C151.607 73.7865 151.487 73.7812 151.352 73.7812C151.018 73.7812 150.724 73.8333 150.469 73.9375C150.214 74.0417 149.997 74.1875 149.82 74.375C149.643 74.5625 149.503 74.7865 149.398 75.0469C149.299 75.3021 149.234 75.5833 149.203 75.8906L148.797 76.125C148.797 75.6146 148.846 75.1354 148.945 74.6875C149.049 74.2396 149.208 73.8438 149.422 73.5C149.635 73.151 149.906 72.8802 150.234 72.6875C150.568 72.4896 150.964 72.3906 151.422 72.3906C151.526 72.3906 151.646 72.4036 151.781 72.4297C151.917 72.4505 152.01 72.474 152.062 72.5ZM158.32 78.7578C158.32 78.5495 158.273 78.3568 158.18 78.1797C158.091 77.9974 157.906 77.8333 157.625 77.6875C157.349 77.5365 156.932 77.4062 156.375 77.2969C155.906 77.1979 155.482 77.0807 155.102 76.9453C154.727 76.8099 154.406 76.6458 154.141 76.4531C153.88 76.2604 153.68 76.0339 153.539 75.7734C153.398 75.513 153.328 75.2083 153.328 74.8594C153.328 74.526 153.401 74.2109 153.547 73.9141C153.698 73.6172 153.909 73.3542 154.18 73.125C154.456 72.8958 154.786 72.7161 155.172 72.5859C155.557 72.4557 155.987 72.3906 156.461 72.3906C157.138 72.3906 157.716 72.5104 158.195 72.75C158.674 72.9896 159.042 73.3099 159.297 73.7109C159.552 74.1068 159.68 74.5469 159.68 75.0312H158.234C158.234 74.7969 158.164 74.5703 158.023 74.3516C157.888 74.1276 157.688 73.9427 157.422 73.7969C157.161 73.651 156.841 73.5781 156.461 73.5781C156.06 73.5781 155.734 73.6406 155.484 73.7656C155.24 73.8854 155.06 74.0391 154.945 74.2266C154.836 74.4141 154.781 74.612 154.781 74.8203C154.781 74.9766 154.807 75.1172 154.859 75.2422C154.917 75.362 155.016 75.474 155.156 75.5781C155.297 75.6771 155.495 75.7708 155.75 75.8594C156.005 75.9479 156.331 76.0365 156.727 76.125C157.419 76.2812 157.99 76.4688 158.438 76.6875C158.885 76.9062 159.219 77.1745 159.438 77.4922C159.656 77.8099 159.766 78.1953 159.766 78.6484C159.766 79.0182 159.688 79.3568 159.531 79.6641C159.38 79.9714 159.159 80.237 158.867 80.4609C158.581 80.6797 158.237 80.8516 157.836 80.9766C157.44 81.0964 156.995 81.1562 156.5 81.1562C155.755 81.1562 155.125 81.0234 154.609 80.7578C154.094 80.4922 153.703 80.1484 153.438 79.7266C153.172 79.3047 153.039 78.8594 153.039 78.3906H154.492C154.513 78.7865 154.628 79.1016 154.836 79.3359C155.044 79.5651 155.299 79.7292 155.602 79.8281C155.904 79.9219 156.203 79.9688 156.5 79.9688C156.896 79.9688 157.227 79.9167 157.492 79.8125C157.763 79.7083 157.969 79.5651 158.109 79.3828C158.25 79.2005 158.32 78.9922 158.32 78.7578ZM165.172 81.1562C164.583 81.1562 164.049 81.0573 163.57 80.8594C163.096 80.6562 162.688 80.3724 162.344 80.0078C162.005 79.6432 161.745 79.2109 161.562 78.7109C161.38 78.2109 161.289 77.6641 161.289 77.0703V76.7422C161.289 76.0547 161.391 75.4427 161.594 74.9062C161.797 74.3646 162.073 73.9062 162.422 73.5312C162.771 73.1562 163.167 72.8724 163.609 72.6797C164.052 72.487 164.51 72.3906 164.984 72.3906C165.589 72.3906 166.109 72.4948 166.547 72.7031C166.99 72.9115 167.352 73.2031 167.633 73.5781C167.914 73.9479 168.122 74.3854 168.258 74.8906C168.393 75.3906 168.461 75.9375 168.461 76.5312V77.1797H162.148V76H167.016V75.8906C166.995 75.5156 166.917 75.151 166.781 74.7969C166.651 74.4427 166.443 74.151 166.156 73.9219C165.87 73.6927 165.479 73.5781 164.984 73.5781C164.656 73.5781 164.354 73.6484 164.078 73.7891C163.802 73.9245 163.565 74.1276 163.367 74.3984C163.169 74.6693 163.016 75 162.906 75.3906C162.797 75.7812 162.742 76.2318 162.742 76.7422V77.0703C162.742 77.4714 162.797 77.849 162.906 78.2031C163.021 78.5521 163.185 78.8594 163.398 79.125C163.617 79.3906 163.88 79.599 164.188 79.75C164.5 79.901 164.854 79.9766 165.25 79.9766C165.76 79.9766 166.193 79.8724 166.547 79.6641C166.901 79.4557 167.211 79.1771 167.477 78.8281L168.352 79.5234C168.169 79.7995 167.938 80.0625 167.656 80.3125C167.375 80.5625 167.029 80.7656 166.617 80.9219C166.211 81.0781 165.729 81.1562 165.172 81.1562ZM175.07 78.7578C175.07 78.5495 175.023 78.3568 174.93 78.1797C174.841 77.9974 174.656 77.8333 174.375 77.6875C174.099 77.5365 173.682 77.4062 173.125 77.2969C172.656 77.1979 172.232 77.0807 171.852 76.9453C171.477 76.8099 171.156 76.6458 170.891 76.4531C170.63 76.2604 170.43 76.0339 170.289 75.7734C170.148 75.513 170.078 75.2083 170.078 74.8594C170.078 74.526 170.151 74.2109 170.297 73.9141C170.448 73.6172 170.659 73.3542 170.93 73.125C171.206 72.8958 171.536 72.7161 171.922 72.5859C172.307 72.4557 172.737 72.3906 173.211 72.3906C173.888 72.3906 174.466 72.5104 174.945 72.75C175.424 72.9896 175.792 73.3099 176.047 73.7109C176.302 74.1068 176.43 74.5469 176.43 75.0312H174.984C174.984 74.7969 174.914 74.5703 174.773 74.3516C174.638 74.1276 174.438 73.9427 174.172 73.7969C173.911 73.651 173.591 73.5781 173.211 73.5781C172.81 73.5781 172.484 73.6406 172.234 73.7656C171.99 73.8854 171.81 74.0391 171.695 74.2266C171.586 74.4141 171.531 74.612 171.531 74.8203C171.531 74.9766 171.557 75.1172 171.609 75.2422C171.667 75.362 171.766 75.474 171.906 75.5781C172.047 75.6771 172.245 75.7708 172.5 75.8594C172.755 75.9479 173.081 76.0365 173.477 76.125C174.169 76.2812 174.74 76.4688 175.188 76.6875C175.635 76.9062 175.969 77.1745 176.188 77.4922C176.406 77.8099 176.516 78.1953 176.516 78.6484C176.516 79.0182 176.438 79.3568 176.281 79.6641C176.13 79.9714 175.909 80.237 175.617 80.4609C175.331 80.6797 174.987 80.8516 174.586 80.9766C174.19 81.0964 173.745 81.1562 173.25 81.1562C172.505 81.1562 171.875 81.0234 171.359 80.7578C170.844 80.4922 170.453 80.1484 170.188 79.7266C169.922 79.3047 169.789 78.8594 169.789 78.3906H171.242C171.263 78.7865 171.378 79.1016 171.586 79.3359C171.794 79.5651 172.049 79.7292 172.352 79.8281C172.654 79.9219 172.953 79.9688 173.25 79.9688C173.646 79.9688 173.977 79.9167 174.242 79.8125C174.513 79.7083 174.719 79.5651 174.859 79.3828C175 79.2005 175.07 78.9922 175.07 78.7578Z" fill="black"/>
<path d="M439.246 33.0508L434.754 31.9766L436.375 17.5625H452.352V22.1133H441.004L440.301 28.4219C440.678 28.2005 441.251 27.9661 442.02 27.7188C442.788 27.4583 443.647 27.3281 444.598 27.3281C445.978 27.3281 447.202 27.543 448.27 27.9727C449.337 28.4023 450.242 29.0273 450.984 29.8477C451.74 30.668 452.312 31.6706 452.703 32.8555C453.094 34.0404 453.289 35.3815 453.289 36.8789C453.289 38.1419 453.094 39.3464 452.703 40.4922C452.312 41.625 451.72 42.6406 450.926 43.5391C450.132 44.4245 449.135 45.1211 447.938 45.6289C446.74 46.1367 445.32 46.3906 443.68 46.3906C442.456 46.3906 441.271 46.2083 440.125 45.8438C438.992 45.4792 437.97 44.9388 437.059 44.2227C436.16 43.5065 435.438 42.6406 434.891 41.625C434.357 40.5964 434.077 39.4245 434.051 38.1094H439.637C439.715 38.9167 439.923 39.6133 440.262 40.1992C440.613 40.7721 441.076 41.2148 441.648 41.5273C442.221 41.8398 442.892 41.9961 443.66 41.9961C444.376 41.9961 444.988 41.8594 445.496 41.5859C446.004 41.3125 446.414 40.9349 446.727 40.4531C447.039 39.9583 447.267 39.3854 447.41 38.7344C447.566 38.0703 447.645 37.3542 447.645 36.5859C447.645 35.8177 447.553 35.1211 447.371 34.4961C447.189 33.8711 446.909 33.3307 446.531 32.875C446.154 32.4193 445.672 32.0677 445.086 31.8203C444.513 31.5729 443.842 31.4492 443.074 31.4492C442.033 31.4492 441.225 31.612 440.652 31.9375C440.092 32.263 439.624 32.6341 439.246 33.0508ZM476.062 29.2812V34.2031C476.062 36.3385 475.835 38.181 475.379 39.7305C474.923 41.2669 474.266 42.5299 473.406 43.5195C472.56 44.4961 471.551 45.2188 470.379 45.6875C469.207 46.1562 467.905 46.3906 466.473 46.3906C465.327 46.3906 464.259 46.2474 463.27 45.9609C462.28 45.6615 461.388 45.1992 460.594 44.5742C459.812 43.9492 459.135 43.1615 458.562 42.2109C458.003 41.2474 457.573 40.1016 457.273 38.7734C456.974 37.4453 456.824 35.9219 456.824 34.2031V29.2812C456.824 27.1458 457.052 25.3164 457.508 23.793C457.977 22.2565 458.634 21 459.48 20.0234C460.34 19.0469 461.355 18.3307 462.527 17.875C463.699 17.4062 465.001 17.1719 466.434 17.1719C467.579 17.1719 468.641 17.3216 469.617 17.6211C470.607 17.9076 471.499 18.3568 472.293 18.9688C473.087 19.5807 473.764 20.3685 474.324 21.332C474.884 22.2826 475.314 23.4219 475.613 24.75C475.913 26.0651 476.062 27.5755 476.062 29.2812ZM470.418 34.9453V28.5195C470.418 27.4909 470.359 26.5924 470.242 25.8242C470.138 25.056 469.975 24.4049 469.754 23.8711C469.533 23.3242 469.259 22.8815 468.934 22.543C468.608 22.2044 468.237 21.957 467.82 21.8008C467.404 21.6445 466.941 21.5664 466.434 21.5664C465.796 21.5664 465.229 21.6901 464.734 21.9375C464.253 22.1849 463.842 22.582 463.504 23.1289C463.165 23.6628 462.905 24.3789 462.723 25.2773C462.553 26.1628 462.469 27.2435 462.469 28.5195V34.9453C462.469 35.974 462.521 36.8789 462.625 37.6602C462.742 38.4414 462.911 39.112 463.133 39.6719C463.367 40.2188 463.641 40.668 463.953 41.0195C464.279 41.3581 464.65 41.6055 465.066 41.7617C465.496 41.918 465.965 41.9961 466.473 41.9961C467.098 41.9961 467.651 41.8724 468.133 41.625C468.628 41.3646 469.044 40.9609 469.383 40.4141C469.734 39.8542 469.995 39.125 470.164 38.2266C470.333 37.3281 470.418 36.2344 470.418 34.9453ZM486.336 17.5625V46H480.477V17.5625H486.336ZM503.367 17.5625L492.098 31.6055L485.594 38.5977L484.539 33.0508L488.934 27.0352L496.18 17.5625H503.367ZM496.707 46L488.328 32.8555L492.664 29.2227L503.641 46H496.707Z" fill="black"/>
<path d="M439.797 69.625H441.258L444.984 78.8984L448.703 69.625H450.172L445.547 81H444.406L439.797 69.625ZM439.32 69.625H440.609L440.82 76.5625V81H439.32V69.625ZM449.352 69.625H450.641V81H449.141V76.5625L449.352 69.625ZM456.578 81.1562C455.99 81.1562 455.456 81.0573 454.977 80.8594C454.503 80.6562 454.094 80.3724 453.75 80.0078C453.411 79.6432 453.151 79.2109 452.969 78.7109C452.786 78.2109 452.695 77.6641 452.695 77.0703V76.7422C452.695 76.0547 452.797 75.4427 453 74.9062C453.203 74.3646 453.479 73.9062 453.828 73.5312C454.177 73.1562 454.573 72.8724 455.016 72.6797C455.458 72.487 455.917 72.3906 456.391 72.3906C456.995 72.3906 457.516 72.4948 457.953 72.7031C458.396 72.9115 458.758 73.2031 459.039 73.5781C459.32 73.9479 459.529 74.3854 459.664 74.8906C459.799 75.3906 459.867 75.9375 459.867 76.5312V77.1797H453.555V76H458.422V75.8906C458.401 75.5156 458.323 75.151 458.188 74.7969C458.057 74.4427 457.849 74.151 457.562 73.9219C457.276 73.6927 456.885 73.5781 456.391 73.5781C456.062 73.5781 455.76 73.6484 455.484 73.7891C455.208 73.9245 454.971 74.1276 454.773 74.3984C454.576 74.6693 454.422 75 454.312 75.3906C454.203 75.7812 454.148 76.2318 454.148 76.7422V77.0703C454.148 77.4714 454.203 77.849 454.312 78.2031C454.427 78.5521 454.591 78.8594 454.805 79.125C455.023 79.3906 455.286 79.599 455.594 79.75C455.906 79.901 456.26 79.9766 456.656 79.9766C457.167 79.9766 457.599 79.8724 457.953 79.6641C458.307 79.4557 458.617 79.1771 458.883 78.8281L459.758 79.5234C459.576 79.7995 459.344 80.0625 459.062 80.3125C458.781 80.5625 458.435 80.7656 458.023 80.9219C457.617 81.0781 457.135 81.1562 456.578 81.1562ZM463 74.3516V81H461.555V72.5469H462.922L463 74.3516ZM462.656 76.4531L462.055 76.4297C462.06 75.8516 462.146 75.3177 462.312 74.8281C462.479 74.3333 462.714 73.9036 463.016 73.5391C463.318 73.1745 463.677 72.8932 464.094 72.6953C464.516 72.4922 464.982 72.3906 465.492 72.3906C465.909 72.3906 466.284 72.4479 466.617 72.5625C466.951 72.6719 467.234 72.849 467.469 73.0938C467.708 73.3385 467.891 73.6562 468.016 74.0469C468.141 74.4323 468.203 74.9036 468.203 75.4609V81H466.75V75.4453C466.75 75.0026 466.685 74.6484 466.555 74.3828C466.424 74.112 466.234 73.9167 465.984 73.7969C465.734 73.6719 465.427 73.6094 465.062 73.6094C464.703 73.6094 464.375 73.6849 464.078 73.8359C463.786 73.987 463.534 74.1953 463.32 74.4609C463.112 74.7266 462.948 75.0312 462.828 75.375C462.714 75.7135 462.656 76.0729 462.656 76.4531ZM473.938 72.5469V73.6562H469.367V72.5469H473.938ZM470.914 70.4922H472.359V78.9062C472.359 79.1927 472.404 79.4089 472.492 79.5547C472.581 79.7005 472.695 79.7969 472.836 79.8438C472.977 79.8906 473.128 79.9141 473.289 79.9141C473.409 79.9141 473.534 79.9036 473.664 79.8828C473.799 79.8568 473.901 79.8359 473.969 79.8203L473.977 81C473.862 81.0365 473.711 81.0703 473.523 81.1016C473.341 81.138 473.12 81.1562 472.859 81.1562C472.505 81.1562 472.18 81.0859 471.883 80.9453C471.586 80.8047 471.349 80.5703 471.172 80.2422C471 79.9089 470.914 79.4609 470.914 78.8984V70.4922ZM475.094 76.8672V76.6875C475.094 76.0781 475.182 75.513 475.359 74.9922C475.536 74.4661 475.792 74.0104 476.125 73.625C476.458 73.2344 476.862 72.9323 477.336 72.7188C477.81 72.5 478.341 72.3906 478.93 72.3906C479.523 72.3906 480.057 72.5 480.531 72.7188C481.01 72.9323 481.417 73.2344 481.75 73.625C482.089 74.0104 482.346 74.4661 482.523 74.9922C482.701 75.513 482.789 76.0781 482.789 76.6875V76.8672C482.789 77.4766 482.701 78.0417 482.523 78.5625C482.346 79.0833 482.089 79.5391 481.75 79.9297C481.417 80.3151 481.013 80.6172 480.539 80.8359C480.07 81.0495 479.539 81.1562 478.945 81.1562C478.352 81.1562 477.818 81.0495 477.344 80.8359C476.87 80.6172 476.464 80.3151 476.125 79.9297C475.792 79.5391 475.536 79.0833 475.359 78.5625C475.182 78.0417 475.094 77.4766 475.094 76.8672ZM476.539 76.6875V76.8672C476.539 77.2891 476.589 77.6875 476.688 78.0625C476.786 78.4323 476.935 78.7604 477.133 79.0469C477.336 79.3333 477.589 79.5599 477.891 79.7266C478.193 79.888 478.544 79.9688 478.945 79.9688C479.341 79.9688 479.688 79.888 479.984 79.7266C480.286 79.5599 480.536 79.3333 480.734 79.0469C480.932 78.7604 481.081 78.4323 481.18 78.0625C481.284 77.6875 481.336 77.2891 481.336 76.8672V76.6875C481.336 76.2708 481.284 75.8776 481.18 75.5078C481.081 75.1328 480.93 74.8021 480.727 74.5156C480.529 74.224 480.279 73.9948 479.977 73.8281C479.68 73.6615 479.331 73.5781 478.93 73.5781C478.534 73.5781 478.185 73.6615 477.883 73.8281C477.586 73.9948 477.336 74.224 477.133 74.5156C476.935 74.8021 476.786 75.1328 476.688 75.5078C476.589 75.8776 476.539 76.2708 476.539 76.6875ZM486.047 73.875V81H484.602V72.5469H486.008L486.047 73.875ZM488.688 72.5L488.68 73.8438C488.56 73.8177 488.445 73.8021 488.336 73.7969C488.232 73.7865 488.112 73.7812 487.977 73.7812C487.643 73.7812 487.349 73.8333 487.094 73.9375C486.839 74.0417 486.622 74.1875 486.445 74.375C486.268 74.5625 486.128 74.7865 486.023 75.0469C485.924 75.3021 485.859 75.5833 485.828 75.8906L485.422 76.125C485.422 75.6146 485.471 75.1354 485.57 74.6875C485.674 74.2396 485.833 73.8438 486.047 73.5C486.26 73.151 486.531 72.8802 486.859 72.6875C487.193 72.4896 487.589 72.3906 488.047 72.3906C488.151 72.3906 488.271 72.4036 488.406 72.4297C488.542 72.4505 488.635 72.474 488.688 72.5ZM494.945 78.7578C494.945 78.5495 494.898 78.3568 494.805 78.1797C494.716 77.9974 494.531 77.8333 494.25 77.6875C493.974 77.5365 493.557 77.4062 493 77.2969C492.531 77.1979 492.107 77.0807 491.727 76.9453C491.352 76.8099 491.031 76.6458 490.766 76.4531C490.505 76.2604 490.305 76.0339 490.164 75.7734C490.023 75.513 489.953 75.2083 489.953 74.8594C489.953 74.526 490.026 74.2109 490.172 73.9141C490.323 73.6172 490.534 73.3542 490.805 73.125C491.081 72.8958 491.411 72.7161 491.797 72.5859C492.182 72.4557 492.612 72.3906 493.086 72.3906C493.763 72.3906 494.341 72.5104 494.82 72.75C495.299 72.9896 495.667 73.3099 495.922 73.7109C496.177 74.1068 496.305 74.5469 496.305 75.0312H494.859C494.859 74.7969 494.789 74.5703 494.648 74.3516C494.513 74.1276 494.312 73.9427 494.047 73.7969C493.786 73.651 493.466 73.5781 493.086 73.5781C492.685 73.5781 492.359 73.6406 492.109 73.7656C491.865 73.8854 491.685 74.0391 491.57 74.2266C491.461 74.4141 491.406 74.612 491.406 74.8203C491.406 74.9766 491.432 75.1172 491.484 75.2422C491.542 75.362 491.641 75.474 491.781 75.5781C491.922 75.6771 492.12 75.7708 492.375 75.8594C492.63 75.9479 492.956 76.0365 493.352 76.125C494.044 76.2812 494.615 76.4688 495.062 76.6875C495.51 76.9062 495.844 77.1745 496.062 77.4922C496.281 77.8099 496.391 78.1953 496.391 78.6484C496.391 79.0182 496.312 79.3568 496.156 79.6641C496.005 79.9714 495.784 80.237 495.492 80.4609C495.206 80.6797 494.862 80.8516 494.461 80.9766C494.065 81.0964 493.62 81.1562 493.125 81.1562C492.38 81.1562 491.75 81.0234 491.234 80.7578C490.719 80.4922 490.328 80.1484 490.062 79.7266C489.797 79.3047 489.664 78.8594 489.664 78.3906H491.117C491.138 78.7865 491.253 79.1016 491.461 79.3359C491.669 79.5651 491.924 79.7292 492.227 79.8281C492.529 79.9219 492.828 79.9688 493.125 79.9688C493.521 79.9688 493.852 79.9167 494.117 79.8125C494.388 79.7083 494.594 79.5651 494.734 79.3828C494.875 79.2005 494.945 78.9922 494.945 78.7578Z" fill="black"/>
</svg>
