<svg width="616" height="96" viewBox="0 0 616 96" fill="none" xmlns="http://www.w3.org/2000/svg">
<path d="M110.215 29.3398H113.223C114.186 29.3398 114.98 29.1771 115.605 28.8516C116.23 28.513 116.693 28.0443 116.992 27.4453C117.305 26.8333 117.461 26.1237 117.461 25.3164C117.461 24.5872 117.318 23.9427 117.031 23.3828C116.758 22.8099 116.335 22.3672 115.762 22.0547C115.189 21.7292 114.466 21.5664 113.594 21.5664C112.904 21.5664 112.266 21.7031 111.68 21.9766C111.094 22.25 110.625 22.6341 110.273 23.1289C109.922 23.6237 109.746 24.2227 109.746 24.9258H104.102C104.102 23.3633 104.518 22.0026 105.352 20.8438C106.198 19.6849 107.331 18.7799 108.75 18.1289C110.169 17.4779 111.732 17.1523 113.438 17.1523C115.365 17.1523 117.051 17.4648 118.496 18.0898C119.941 18.7018 121.068 19.6068 121.875 20.8047C122.682 22.0026 123.086 23.487 123.086 25.2578C123.086 26.1562 122.878 27.0286 122.461 27.875C122.044 28.7083 121.445 29.4635 120.664 30.1406C119.896 30.8047 118.958 31.3385 117.852 31.7422C116.745 32.1328 115.501 32.3281 114.121 32.3281H110.215V29.3398ZM110.215 33.6172V30.707H114.121C115.671 30.707 117.031 30.8828 118.203 31.2344C119.375 31.5859 120.358 32.0938 121.152 32.7578C121.947 33.4089 122.546 34.1836 122.949 35.082C123.353 35.9674 123.555 36.9505 123.555 38.0312C123.555 39.3594 123.301 40.5443 122.793 41.5859C122.285 42.6146 121.569 43.487 120.645 44.2031C119.733 44.9193 118.665 45.4661 117.441 45.8438C116.217 46.2083 114.883 46.3906 113.438 46.3906C112.24 46.3906 111.061 46.2279 109.902 45.9023C108.757 45.5638 107.715 45.0625 106.777 44.3984C105.853 43.7214 105.111 42.875 104.551 41.8594C104.004 40.8307 103.73 39.6133 103.73 38.207H109.375C109.375 38.9362 109.557 39.5872 109.922 40.1602C110.286 40.7331 110.788 41.1823 111.426 41.5078C112.077 41.8333 112.799 41.9961 113.594 41.9961C114.492 41.9961 115.26 41.8333 115.898 41.5078C116.549 41.1693 117.044 40.7005 117.383 40.1016C117.734 39.4896 117.91 38.7799 117.91 37.9727C117.91 36.931 117.721 36.0977 117.344 35.4727C116.966 34.8346 116.426 34.3659 115.723 34.0664C115.02 33.7669 114.186 33.6172 113.223 33.6172H110.215ZM146.738 17.5625V20.5898L135.742 46H129.805L140.801 21.957H126.641V17.5625H146.738ZM169.531 29.2812V34.2031C169.531 36.3385 169.303 38.181 168.848 39.7305C168.392 41.2669 167.734 42.5299 166.875 43.5195C166.029 44.4961 165.02 45.2188 163.848 45.6875C162.676 46.1562 161.374 46.3906 159.941 46.3906C158.796 46.3906 157.728 46.2474 156.738 45.9609C155.749 45.6615 154.857 45.1992 154.062 44.5742C153.281 43.9492 152.604 43.1615 152.031 42.2109C151.471 41.2474 151.042 40.1016 150.742 38.7734C150.443 37.4453 150.293 35.9219 150.293 34.2031V29.2812C150.293 27.1458 150.521 25.3164 150.977 23.793C151.445 22.2565 152.103 21 152.949 20.0234C153.809 19.0469 154.824 18.3307 155.996 17.875C157.168 17.4062 158.47 17.1719 159.902 17.1719C161.048 17.1719 162.109 17.3216 163.086 17.6211C164.076 17.9076 164.967 18.3568 165.762 18.9688C166.556 19.5807 167.233 20.3685 167.793 21.332C168.353 22.2826 168.783 23.4219 169.082 24.75C169.382 26.0651 169.531 27.5755 169.531 29.2812ZM163.887 34.9453V28.5195C163.887 27.4909 163.828 26.5924 163.711 25.8242C163.607 25.056 163.444 24.4049 163.223 23.8711C163.001 23.3242 162.728 22.8815 162.402 22.543C162.077 22.2044 161.706 21.957 161.289 21.8008C160.872 21.6445 160.41 21.5664 159.902 21.5664C159.264 21.5664 158.698 21.6901 158.203 21.9375C157.721 22.1849 157.311 22.582 156.973 23.1289C156.634 23.6628 156.374 24.3789 156.191 25.2773C156.022 26.1628 155.938 27.2435 155.938 28.5195V34.9453C155.938 35.974 155.99 36.8789 156.094 37.6602C156.211 38.4414 156.38 39.112 156.602 39.6719C156.836 40.2188 157.109 40.668 157.422 41.0195C157.747 41.3581 158.118 41.6055 158.535 41.7617C158.965 41.918 159.434 41.9961 159.941 41.9961C160.566 41.9961 161.12 41.8724 161.602 41.625C162.096 41.3646 162.513 40.9609 162.852 40.4141C163.203 39.8542 163.464 39.125 163.633 38.2266C163.802 37.3281 163.887 36.2344 163.887 34.9453ZM179.219 15.9805V46H173.594V15.9805H179.219ZM192.539 24.8672L183.359 35.3359L178.438 40.3164L176.387 36.2539L180.293 31.293L185.781 24.8672H192.539ZM186.699 46L180.449 36.2344L184.336 32.8359L193.184 46H186.699Z" fill="black"/>
<path d="M123.383 78.125C123.383 77.8594 123.341 77.625 123.258 77.4219C123.18 77.2135 123.039 77.026 122.836 76.8594C122.638 76.6927 122.362 76.5339 122.008 76.3828C121.659 76.2318 121.216 76.0781 120.68 75.9219C120.117 75.7552 119.609 75.5703 119.156 75.3672C118.703 75.1589 118.315 74.9219 117.992 74.6562C117.669 74.3906 117.422 74.0859 117.25 73.7422C117.078 73.3984 116.992 73.0052 116.992 72.5625C116.992 72.1198 117.083 71.7109 117.266 71.3359C117.448 70.9609 117.708 70.6354 118.047 70.3594C118.391 70.0781 118.799 69.8594 119.273 69.7031C119.747 69.5469 120.276 69.4688 120.859 69.4688C121.714 69.4688 122.438 69.6328 123.031 69.9609C123.63 70.2839 124.086 70.7083 124.398 71.2344C124.711 71.7552 124.867 72.3125 124.867 72.9062H123.367C123.367 72.4792 123.276 72.1016 123.094 71.7734C122.911 71.4401 122.635 71.1797 122.266 70.9922C121.896 70.7995 121.427 70.7031 120.859 70.7031C120.323 70.7031 119.88 70.7839 119.531 70.9453C119.182 71.1068 118.922 71.3255 118.75 71.6016C118.583 71.8776 118.5 72.1927 118.5 72.5469C118.5 72.7865 118.549 73.0052 118.648 73.2031C118.753 73.3958 118.911 73.5755 119.125 73.7422C119.344 73.9089 119.62 74.0625 119.953 74.2031C120.292 74.3438 120.695 74.4792 121.164 74.6094C121.81 74.7917 122.367 74.9948 122.836 75.2188C123.305 75.4427 123.69 75.6953 123.992 75.9766C124.299 76.2526 124.526 76.5677 124.672 76.9219C124.823 77.2708 124.898 77.6667 124.898 78.1094C124.898 78.5729 124.805 78.9922 124.617 79.3672C124.43 79.7422 124.161 80.0625 123.812 80.3281C123.464 80.5938 123.044 80.7995 122.555 80.9453C122.07 81.0859 121.529 81.1562 120.93 81.1562C120.404 81.1562 119.885 81.0833 119.375 80.9375C118.87 80.7917 118.409 80.5729 117.992 80.2812C117.581 79.9896 117.25 79.6302 117 79.2031C116.755 78.7708 116.633 78.2708 116.633 77.7031H118.133C118.133 78.0938 118.208 78.4297 118.359 78.7109C118.51 78.987 118.716 79.2161 118.977 79.3984C119.242 79.5807 119.542 79.7161 119.875 79.8047C120.214 79.888 120.565 79.9297 120.93 79.9297C121.456 79.9297 121.901 79.8568 122.266 79.7109C122.63 79.5651 122.906 79.3568 123.094 79.0859C123.286 78.8151 123.383 78.4948 123.383 78.125ZM130.141 72.5469V73.6562H125.57V72.5469H130.141ZM127.117 70.4922H128.562V78.9062C128.562 79.1927 128.607 79.4089 128.695 79.5547C128.784 79.7005 128.898 79.7969 129.039 79.8438C129.18 79.8906 129.331 79.9141 129.492 79.9141C129.612 79.9141 129.737 79.9036 129.867 79.8828C130.003 79.8568 130.104 79.8359 130.172 79.8203L130.18 81C130.065 81.0365 129.914 81.0703 129.727 81.1016C129.544 81.138 129.323 81.1562 129.062 81.1562C128.708 81.1562 128.383 81.0859 128.086 80.9453C127.789 80.8047 127.552 80.5703 127.375 80.2422C127.203 79.9089 127.117 79.4609 127.117 78.8984V70.4922ZM137.008 79.0469V72.5469H138.461V81H137.078L137.008 79.0469ZM137.281 77.2656L137.883 77.25C137.883 77.8125 137.823 78.3333 137.703 78.8125C137.589 79.2865 137.401 79.6979 137.141 80.0469C136.88 80.3958 136.539 80.6693 136.117 80.8672C135.695 81.0599 135.182 81.1562 134.578 81.1562C134.167 81.1562 133.789 81.0964 133.445 80.9766C133.107 80.8568 132.815 80.6719 132.57 80.4219C132.326 80.1719 132.135 79.8464 132 79.4453C131.87 79.0443 131.805 78.5625 131.805 78V72.5469H133.25V78.0156C133.25 78.3958 133.292 78.7109 133.375 78.9609C133.464 79.2057 133.581 79.401 133.727 79.5469C133.878 79.6875 134.044 79.7865 134.227 79.8438C134.414 79.901 134.607 79.9297 134.805 79.9297C135.419 79.9297 135.906 79.8125 136.266 79.5781C136.625 79.3385 136.883 79.0182 137.039 78.6172C137.201 78.2109 137.281 77.7604 137.281 77.2656ZM145.992 79.3594V69H147.445V81H146.117L145.992 79.3594ZM140.305 76.8672V76.7031C140.305 76.0573 140.383 75.4714 140.539 74.9453C140.701 74.4141 140.927 73.9583 141.219 73.5781C141.516 73.1979 141.867 72.9062 142.273 72.7031C142.685 72.4948 143.143 72.3906 143.648 72.3906C144.18 72.3906 144.643 72.4844 145.039 72.6719C145.44 72.8542 145.779 73.1224 146.055 73.4766C146.336 73.8255 146.557 74.2474 146.719 74.7422C146.88 75.237 146.992 75.7969 147.055 76.4219V77.1406C146.997 77.7604 146.885 78.3177 146.719 78.8125C146.557 79.3073 146.336 79.7292 146.055 80.0781C145.779 80.4271 145.44 80.6953 145.039 80.8828C144.638 81.0651 144.169 81.1562 143.633 81.1562C143.138 81.1562 142.685 81.0495 142.273 80.8359C141.867 80.6224 141.516 80.3229 141.219 79.9375C140.927 79.5521 140.701 79.099 140.539 78.5781C140.383 78.0521 140.305 77.4818 140.305 76.8672ZM141.758 76.7031V76.8672C141.758 77.2891 141.799 77.6849 141.883 78.0547C141.971 78.4245 142.107 78.75 142.289 79.0312C142.471 79.3125 142.703 79.5339 142.984 79.6953C143.266 79.8516 143.602 79.9297 143.992 79.9297C144.471 79.9297 144.865 79.8281 145.172 79.625C145.484 79.4219 145.734 79.1536 145.922 78.8203C146.109 78.487 146.255 78.125 146.359 77.7344V75.8516C146.297 75.5651 146.206 75.2891 146.086 75.0234C145.971 74.7526 145.82 74.513 145.633 74.3047C145.451 74.0911 145.224 73.9219 144.953 73.7969C144.688 73.6719 144.372 73.6094 144.008 73.6094C143.612 73.6094 143.271 73.6927 142.984 73.8594C142.703 74.0208 142.471 74.2448 142.289 74.5312C142.107 74.8125 141.971 75.1406 141.883 75.5156C141.799 75.8854 141.758 76.2812 141.758 76.7031ZM153.203 81.1562C152.615 81.1562 152.081 81.0573 151.602 80.8594C151.128 80.6562 150.719 80.3724 150.375 80.0078C150.036 79.6432 149.776 79.2109 149.594 78.7109C149.411 78.2109 149.32 77.6641 149.32 77.0703V76.7422C149.32 76.0547 149.422 75.4427 149.625 74.9062C149.828 74.3646 150.104 73.9062 150.453 73.5312C150.802 73.1562 151.198 72.8724 151.641 72.6797C152.083 72.487 152.542 72.3906 153.016 72.3906C153.62 72.3906 154.141 72.4948 154.578 72.7031C155.021 72.9115 155.383 73.2031 155.664 73.5781C155.945 73.9479 156.154 74.3854 156.289 74.8906C156.424 75.3906 156.492 75.9375 156.492 76.5312V77.1797H150.18V76H155.047V75.8906C155.026 75.5156 154.948 75.151 154.812 74.7969C154.682 74.4427 154.474 74.151 154.188 73.9219C153.901 73.6927 153.51 73.5781 153.016 73.5781C152.688 73.5781 152.385 73.6484 152.109 73.7891C151.833 73.9245 151.596 74.1276 151.398 74.3984C151.201 74.6693 151.047 75 150.938 75.3906C150.828 75.7812 150.773 76.2318 150.773 76.7422V77.0703C150.773 77.4714 150.828 77.849 150.938 78.2031C151.052 78.5521 151.216 78.8594 151.43 79.125C151.648 79.3906 151.911 79.599 152.219 79.75C152.531 79.901 152.885 79.9766 153.281 79.9766C153.792 79.9766 154.224 79.8724 154.578 79.6641C154.932 79.4557 155.242 79.1771 155.508 78.8281L156.383 79.5234C156.201 79.7995 155.969 80.0625 155.688 80.3125C155.406 80.5625 155.06 80.7656 154.648 80.9219C154.242 81.0781 153.76 81.1562 153.203 81.1562ZM159.625 74.3516V81H158.18V72.5469H159.547L159.625 74.3516ZM159.281 76.4531L158.68 76.4297C158.685 75.8516 158.771 75.3177 158.938 74.8281C159.104 74.3333 159.339 73.9036 159.641 73.5391C159.943 73.1745 160.302 72.8932 160.719 72.6953C161.141 72.4922 161.607 72.3906 162.117 72.3906C162.534 72.3906 162.909 72.4479 163.242 72.5625C163.576 72.6719 163.859 72.849 164.094 73.0938C164.333 73.3385 164.516 73.6562 164.641 74.0469C164.766 74.4323 164.828 74.9036 164.828 75.4609V81H163.375V75.4453C163.375 75.0026 163.31 74.6484 163.18 74.3828C163.049 74.112 162.859 73.9167 162.609 73.7969C162.359 73.6719 162.052 73.6094 161.688 73.6094C161.328 73.6094 161 73.6849 160.703 73.8359C160.411 73.987 160.159 74.1953 159.945 74.4609C159.737 74.7266 159.573 75.0312 159.453 75.375C159.339 75.7135 159.281 76.0729 159.281 76.4531ZM170.562 72.5469V73.6562H165.992V72.5469H170.562ZM167.539 70.4922H168.984V78.9062C168.984 79.1927 169.029 79.4089 169.117 79.5547C169.206 79.7005 169.32 79.7969 169.461 79.8438C169.602 79.8906 169.753 79.9141 169.914 79.9141C170.034 79.9141 170.159 79.9036 170.289 79.8828C170.424 79.8568 170.526 79.8359 170.594 79.8203L170.602 81C170.487 81.0365 170.336 81.0703 170.148 81.1016C169.966 81.138 169.745 81.1562 169.484 81.1562C169.13 81.1562 168.805 81.0859 168.508 80.9453C168.211 80.8047 167.974 80.5703 167.797 80.2422C167.625 79.9089 167.539 79.4609 167.539 78.8984V70.4922ZM177.18 78.7578C177.18 78.5495 177.133 78.3568 177.039 78.1797C176.951 77.9974 176.766 77.8333 176.484 77.6875C176.208 77.5365 175.792 77.4062 175.234 77.2969C174.766 77.1979 174.341 77.0807 173.961 76.9453C173.586 76.8099 173.266 76.6458 173 76.4531C172.74 76.2604 172.539 76.0339 172.398 75.7734C172.258 75.513 172.188 75.2083 172.188 74.8594C172.188 74.526 172.26 74.2109 172.406 73.9141C172.557 73.6172 172.768 73.3542 173.039 73.125C173.315 72.8958 173.646 72.7161 174.031 72.5859C174.417 72.4557 174.846 72.3906 175.32 72.3906C175.997 72.3906 176.576 72.5104 177.055 72.75C177.534 72.9896 177.901 73.3099 178.156 73.7109C178.411 74.1068 178.539 74.5469 178.539 75.0312H177.094C177.094 74.7969 177.023 74.5703 176.883 74.3516C176.747 74.1276 176.547 73.9427 176.281 73.7969C176.021 73.651 175.701 73.5781 175.32 73.5781C174.919 73.5781 174.594 73.6406 174.344 73.7656C174.099 73.8854 173.919 74.0391 173.805 74.2266C173.695 74.4141 173.641 74.612 173.641 74.8203C173.641 74.9766 173.667 75.1172 173.719 75.2422C173.776 75.362 173.875 75.474 174.016 75.5781C174.156 75.6771 174.354 75.7708 174.609 75.8594C174.865 75.9479 175.19 76.0365 175.586 76.125C176.279 76.2812 176.849 76.4688 177.297 76.6875C177.745 76.9062 178.078 77.1745 178.297 77.4922C178.516 77.8099 178.625 78.1953 178.625 78.6484C178.625 79.0182 178.547 79.3568 178.391 79.6641C178.24 79.9714 178.018 80.237 177.727 80.4609C177.44 80.6797 177.096 80.8516 176.695 80.9766C176.299 81.0964 175.854 81.1562 175.359 81.1562C174.615 81.1562 173.984 81.0234 173.469 80.7578C172.953 80.4922 172.562 80.1484 172.297 79.7266C172.031 79.3047 171.898 78.8594 171.898 78.3906H173.352C173.372 78.7865 173.487 79.1016 173.695 79.3359C173.904 79.5651 174.159 79.7292 174.461 79.8281C174.763 79.9219 175.062 79.9688 175.359 79.9688C175.755 79.9688 176.086 79.9167 176.352 79.8125C176.622 79.7083 176.828 79.5651 176.969 79.3828C177.109 79.2005 177.18 78.9922 177.18 78.7578Z" fill="black"/>
<path d="M438.164 17.5039V46H432.539V23.9883L425.781 26.1367V21.7031L437.559 17.5039H438.164ZM466.562 29.2812V34.2031C466.562 36.3385 466.335 38.181 465.879 39.7305C465.423 41.2669 464.766 42.5299 463.906 43.5195C463.06 44.4961 462.051 45.2188 460.879 45.6875C459.707 46.1562 458.405 46.3906 456.973 46.3906C455.827 46.3906 454.759 46.2474 453.77 45.9609C452.78 45.6615 451.888 45.1992 451.094 44.5742C450.312 43.9492 449.635 43.1615 449.062 42.2109C448.503 41.2474 448.073 40.1016 447.773 38.7734C447.474 37.4453 447.324 35.9219 447.324 34.2031V29.2812C447.324 27.1458 447.552 25.3164 448.008 23.793C448.477 22.2565 449.134 21 449.98 20.0234C450.84 19.0469 451.855 18.3307 453.027 17.875C454.199 17.4062 455.501 17.1719 456.934 17.1719C458.079 17.1719 459.141 17.3216 460.117 17.6211C461.107 17.9076 461.999 18.3568 462.793 18.9688C463.587 19.5807 464.264 20.3685 464.824 21.332C465.384 22.2826 465.814 23.4219 466.113 24.75C466.413 26.0651 466.562 27.5755 466.562 29.2812ZM460.918 34.9453V28.5195C460.918 27.4909 460.859 26.5924 460.742 25.8242C460.638 25.056 460.475 24.4049 460.254 23.8711C460.033 23.3242 459.759 22.8815 459.434 22.543C459.108 22.2044 458.737 21.957 458.32 21.8008C457.904 21.6445 457.441 21.5664 456.934 21.5664C456.296 21.5664 455.729 21.6901 455.234 21.9375C454.753 22.1849 454.342 22.582 454.004 23.1289C453.665 23.6628 453.405 24.3789 453.223 25.2773C453.053 26.1628 452.969 27.2435 452.969 28.5195V34.9453C452.969 35.974 453.021 36.8789 453.125 37.6602C453.242 38.4414 453.411 39.112 453.633 39.6719C453.867 40.2188 454.141 40.668 454.453 41.0195C454.779 41.3581 455.15 41.6055 455.566 41.7617C455.996 41.918 456.465 41.9961 456.973 41.9961C457.598 41.9961 458.151 41.8724 458.633 41.625C459.128 41.3646 459.544 40.9609 459.883 40.4141C460.234 39.8542 460.495 39.125 460.664 38.2266C460.833 37.3281 460.918 36.2344 460.918 34.9453ZM489.531 29.2812V34.2031C489.531 36.3385 489.303 38.181 488.848 39.7305C488.392 41.2669 487.734 42.5299 486.875 43.5195C486.029 44.4961 485.02 45.2188 483.848 45.6875C482.676 46.1562 481.374 46.3906 479.941 46.3906C478.796 46.3906 477.728 46.2474 476.738 45.9609C475.749 45.6615 474.857 45.1992 474.062 44.5742C473.281 43.9492 472.604 43.1615 472.031 42.2109C471.471 41.2474 471.042 40.1016 470.742 38.7734C470.443 37.4453 470.293 35.9219 470.293 34.2031V29.2812C470.293 27.1458 470.521 25.3164 470.977 23.793C471.445 22.2565 472.103 21 472.949 20.0234C473.809 19.0469 474.824 18.3307 475.996 17.875C477.168 17.4062 478.47 17.1719 479.902 17.1719C481.048 17.1719 482.109 17.3216 483.086 17.6211C484.076 17.9076 484.967 18.3568 485.762 18.9688C486.556 19.5807 487.233 20.3685 487.793 21.332C488.353 22.2826 488.783 23.4219 489.082 24.75C489.382 26.0651 489.531 27.5755 489.531 29.2812ZM483.887 34.9453V28.5195C483.887 27.4909 483.828 26.5924 483.711 25.8242C483.607 25.056 483.444 24.4049 483.223 23.8711C483.001 23.3242 482.728 22.8815 482.402 22.543C482.077 22.2044 481.706 21.957 481.289 21.8008C480.872 21.6445 480.41 21.5664 479.902 21.5664C479.264 21.5664 478.698 21.6901 478.203 21.9375C477.721 22.1849 477.311 22.582 476.973 23.1289C476.634 23.6628 476.374 24.3789 476.191 25.2773C476.022 26.1628 475.938 27.2435 475.938 28.5195V34.9453C475.938 35.974 475.99 36.8789 476.094 37.6602C476.211 38.4414 476.38 39.112 476.602 39.6719C476.836 40.2188 477.109 40.668 477.422 41.0195C477.747 41.3581 478.118 41.6055 478.535 41.7617C478.965 41.918 479.434 41.9961 479.941 41.9961C480.566 41.9961 481.12 41.8724 481.602 41.625C482.096 41.3646 482.513 40.9609 482.852 40.4141C483.203 39.8542 483.464 39.125 483.633 38.2266C483.802 37.3281 483.887 36.2344 483.887 34.9453ZM511.992 30.1602V35.0625H492.5V30.1602H511.992ZM504.922 22.4453V43.1484H499.59V22.4453H504.922Z" fill="black"/>
<path d="M426.82 69.625H430.586C431.44 69.625 432.161 69.7552 432.75 70.0156C433.344 70.276 433.794 70.6615 434.102 71.1719C434.414 71.6771 434.57 72.2995 434.57 73.0391C434.57 73.5599 434.464 74.0365 434.25 74.4688C434.042 74.8958 433.74 75.2604 433.344 75.5625C432.953 75.8594 432.484 76.0807 431.938 76.2266L431.516 76.3906H427.977L427.961 75.1641H430.633C431.174 75.1641 431.625 75.0703 431.984 74.8828C432.344 74.6901 432.615 74.4323 432.797 74.1094C432.979 73.7865 433.07 73.4297 433.07 73.0391C433.07 72.6016 432.984 72.2188 432.812 71.8906C432.641 71.5625 432.37 71.3099 432 71.1328C431.635 70.9505 431.164 70.8594 430.586 70.8594H428.328V81H426.82V69.625ZM433.469 81L430.703 75.8438L432.273 75.8359L435.078 80.9062V81H433.469ZM439.969 81.1562C439.38 81.1562 438.846 81.0573 438.367 80.8594C437.893 80.6562 437.484 80.3724 437.141 80.0078C436.802 79.6432 436.542 79.2109 436.359 78.7109C436.177 78.2109 436.086 77.6641 436.086 77.0703V76.7422C436.086 76.0547 436.188 75.4427 436.391 74.9062C436.594 74.3646 436.87 73.9062 437.219 73.5312C437.568 73.1562 437.964 72.8724 438.406 72.6797C438.849 72.487 439.307 72.3906 439.781 72.3906C440.385 72.3906 440.906 72.4948 441.344 72.7031C441.786 72.9115 442.148 73.2031 442.43 73.5781C442.711 73.9479 442.919 74.3854 443.055 74.8906C443.19 75.3906 443.258 75.9375 443.258 76.5312V77.1797H436.945V76H441.812V75.8906C441.792 75.5156 441.714 75.151 441.578 74.7969C441.448 74.4427 441.24 74.151 440.953 73.9219C440.667 73.6927 440.276 73.5781 439.781 73.5781C439.453 73.5781 439.151 73.6484 438.875 73.7891C438.599 73.9245 438.362 74.1276 438.164 74.3984C437.966 74.6693 437.812 75 437.703 75.3906C437.594 75.7812 437.539 76.2318 437.539 76.7422V77.0703C437.539 77.4714 437.594 77.849 437.703 78.2031C437.818 78.5521 437.982 78.8594 438.195 79.125C438.414 79.3906 438.677 79.599 438.984 79.75C439.297 79.901 439.651 79.9766 440.047 79.9766C440.557 79.9766 440.99 79.8724 441.344 79.6641C441.698 79.4557 442.008 79.1771 442.273 78.8281L443.148 79.5234C442.966 79.7995 442.734 80.0625 442.453 80.3125C442.172 80.5625 441.826 80.7656 441.414 80.9219C441.008 81.0781 440.526 81.1562 439.969 81.1562ZM448.328 79.9688C448.672 79.9688 448.99 79.8984 449.281 79.7578C449.573 79.6172 449.812 79.4245 450 79.1797C450.188 78.9297 450.294 78.6458 450.32 78.3281H451.695C451.669 78.8281 451.5 79.2943 451.188 79.7266C450.88 80.1536 450.477 80.5 449.977 80.7656C449.477 81.026 448.927 81.1562 448.328 81.1562C447.693 81.1562 447.138 81.0443 446.664 80.8203C446.195 80.5964 445.805 80.2891 445.492 79.8984C445.185 79.5078 444.953 79.0599 444.797 78.5547C444.646 78.0443 444.57 77.5052 444.57 76.9375V76.6094C444.57 76.0417 444.646 75.5052 444.797 75C444.953 74.4896 445.185 74.0391 445.492 73.6484C445.805 73.2578 446.195 72.9505 446.664 72.7266C447.138 72.5026 447.693 72.3906 448.328 72.3906C448.99 72.3906 449.568 72.526 450.062 72.7969C450.557 73.0625 450.945 73.4271 451.227 73.8906C451.513 74.349 451.669 74.8698 451.695 75.4531H450.32C450.294 75.1042 450.195 74.7891 450.023 74.5078C449.857 74.2266 449.628 74.0026 449.336 73.8359C449.049 73.6641 448.714 73.5781 448.328 73.5781C447.885 73.5781 447.513 73.6667 447.211 73.8438C446.914 74.0156 446.677 74.25 446.5 74.5469C446.328 74.8385 446.203 75.1641 446.125 75.5234C446.052 75.8776 446.016 76.2396 446.016 76.6094V76.9375C446.016 77.3073 446.052 77.6719 446.125 78.0312C446.198 78.3906 446.32 78.7161 446.492 79.0078C446.669 79.2995 446.906 79.5339 447.203 79.7109C447.505 79.8828 447.88 79.9688 448.328 79.9688ZM452.938 76.8672V76.6875C452.938 76.0781 453.026 75.513 453.203 74.9922C453.38 74.4661 453.635 74.0104 453.969 73.625C454.302 73.2344 454.706 72.9323 455.18 72.7188C455.654 72.5 456.185 72.3906 456.773 72.3906C457.367 72.3906 457.901 72.5 458.375 72.7188C458.854 72.9323 459.26 73.2344 459.594 73.625C459.932 74.0104 460.19 74.4661 460.367 74.9922C460.544 75.513 460.633 76.0781 460.633 76.6875V76.8672C460.633 77.4766 460.544 78.0417 460.367 78.5625C460.19 79.0833 459.932 79.5391 459.594 79.9297C459.26 80.3151 458.857 80.6172 458.383 80.8359C457.914 81.0495 457.383 81.1562 456.789 81.1562C456.195 81.1562 455.661 81.0495 455.188 80.8359C454.714 80.6172 454.307 80.3151 453.969 79.9297C453.635 79.5391 453.38 79.0833 453.203 78.5625C453.026 78.0417 452.938 77.4766 452.938 76.8672ZM454.383 76.6875V76.8672C454.383 77.2891 454.432 77.6875 454.531 78.0625C454.63 78.4323 454.779 78.7604 454.977 79.0469C455.18 79.3333 455.432 79.5599 455.734 79.7266C456.036 79.888 456.388 79.9688 456.789 79.9688C457.185 79.9688 457.531 79.888 457.828 79.7266C458.13 79.5599 458.38 79.3333 458.578 79.0469C458.776 78.7604 458.924 78.4323 459.023 78.0625C459.128 77.6875 459.18 77.2891 459.18 76.8672V76.6875C459.18 76.2708 459.128 75.8776 459.023 75.5078C458.924 75.1328 458.773 74.8021 458.57 74.5156C458.372 74.224 458.122 73.9948 457.82 73.8281C457.523 73.6615 457.174 73.5781 456.773 73.5781C456.378 73.5781 456.029 73.6615 455.727 73.8281C455.43 73.9948 455.18 74.224 454.977 74.5156C454.779 74.8021 454.63 75.1328 454.531 75.5078C454.432 75.8776 454.383 76.2708 454.383 76.6875ZM467.922 72.5469H469.234V80.8203C469.234 81.5651 469.083 82.2005 468.781 82.7266C468.479 83.2526 468.057 83.651 467.516 83.9219C466.979 84.1979 466.359 84.3359 465.656 84.3359C465.365 84.3359 465.021 84.2891 464.625 84.1953C464.234 84.1068 463.849 83.9531 463.469 83.7344C463.094 83.5208 462.779 83.2318 462.523 82.8672L463.281 82.0078C463.635 82.4349 464.005 82.7318 464.391 82.8984C464.781 83.0651 465.167 83.1484 465.547 83.1484C466.005 83.1484 466.401 83.0625 466.734 82.8906C467.068 82.7188 467.326 82.4635 467.508 82.125C467.695 81.7917 467.789 81.3802 467.789 80.8906V74.4062L467.922 72.5469ZM462.102 76.8672V76.7031C462.102 76.0573 462.177 75.4714 462.328 74.9453C462.484 74.4141 462.706 73.9583 462.992 73.5781C463.284 73.1979 463.635 72.9062 464.047 72.7031C464.458 72.4948 464.922 72.3906 465.438 72.3906C465.969 72.3906 466.432 72.4844 466.828 72.6719C467.229 72.8542 467.568 73.1224 467.844 73.4766C468.125 73.8255 468.346 74.2474 468.508 74.7422C468.669 75.237 468.781 75.7969 468.844 76.4219V77.1406C468.786 77.7604 468.674 78.3177 468.508 78.8125C468.346 79.3073 468.125 79.7292 467.844 80.0781C467.568 80.4271 467.229 80.6953 466.828 80.8828C466.427 81.0651 465.958 81.1562 465.422 81.1562C464.917 81.1562 464.458 81.0495 464.047 80.8359C463.641 80.6224 463.292 80.3229 463 79.9375C462.708 79.5521 462.484 79.099 462.328 78.5781C462.177 78.0521 462.102 77.4818 462.102 76.8672ZM463.547 76.7031V76.8672C463.547 77.2891 463.589 77.6849 463.672 78.0547C463.76 78.4245 463.893 78.75 464.07 79.0312C464.253 79.3125 464.484 79.5339 464.766 79.6953C465.047 79.8516 465.383 79.9297 465.773 79.9297C466.253 79.9297 466.648 79.8281 466.961 79.625C467.273 79.4219 467.521 79.1536 467.703 78.8203C467.891 78.487 468.036 78.125 468.141 77.7344V75.8516C468.083 75.5651 467.995 75.2891 467.875 75.0234C467.76 74.7526 467.609 74.513 467.422 74.3047C467.24 74.0911 467.013 73.9219 466.742 73.7969C466.471 73.6719 466.154 73.6094 465.789 73.6094C465.393 73.6094 465.052 73.6927 464.766 73.8594C464.484 74.0208 464.253 74.2448 464.07 74.5312C463.893 74.8125 463.76 75.1406 463.672 75.5156C463.589 75.8854 463.547 76.2812 463.547 76.7031ZM472.875 74.3516V81H471.43V72.5469H472.797L472.875 74.3516ZM472.531 76.4531L471.93 76.4297C471.935 75.8516 472.021 75.3177 472.188 74.8281C472.354 74.3333 472.589 73.9036 472.891 73.5391C473.193 73.1745 473.552 72.8932 473.969 72.6953C474.391 72.4922 474.857 72.3906 475.367 72.3906C475.784 72.3906 476.159 72.4479 476.492 72.5625C476.826 72.6719 477.109 72.849 477.344 73.0938C477.583 73.3385 477.766 73.6562 477.891 74.0469C478.016 74.4323 478.078 74.9036 478.078 75.4609V81H476.625V75.4453C476.625 75.0026 476.56 74.6484 476.43 74.3828C476.299 74.112 476.109 73.9167 475.859 73.7969C475.609 73.6719 475.302 73.6094 474.938 73.6094C474.578 73.6094 474.25 73.6849 473.953 73.8359C473.661 73.987 473.409 74.1953 473.195 74.4609C472.987 74.7266 472.823 75.0312 472.703 75.375C472.589 75.7135 472.531 76.0729 472.531 76.4531ZM481.844 72.5469V81H480.391V72.5469H481.844ZM480.281 70.3047C480.281 70.0703 480.352 69.8724 480.492 69.7109C480.638 69.5495 480.852 69.4688 481.133 69.4688C481.409 69.4688 481.62 69.5495 481.766 69.7109C481.917 69.8724 481.992 70.0703 481.992 70.3047C481.992 70.5286 481.917 70.7214 481.766 70.8828C481.62 71.0391 481.409 71.1172 481.133 71.1172C480.852 71.1172 480.638 71.0391 480.492 70.8828C480.352 70.7214 480.281 70.5286 480.281 70.3047ZM487.703 72.5469V73.6562H483.133V72.5469H487.703ZM484.68 70.4922H486.125V78.9062C486.125 79.1927 486.169 79.4089 486.258 79.5547C486.346 79.7005 486.461 79.7969 486.602 79.8438C486.742 79.8906 486.893 79.9141 487.055 79.9141C487.174 79.9141 487.299 79.9036 487.43 79.8828C487.565 79.8568 487.667 79.8359 487.734 79.8203L487.742 81C487.628 81.0365 487.477 81.0703 487.289 81.1016C487.107 81.138 486.885 81.1562 486.625 81.1562C486.271 81.1562 485.945 81.0859 485.648 80.9453C485.352 80.8047 485.115 80.5703 484.938 80.2422C484.766 79.9089 484.68 79.4609 484.68 78.8984V70.4922ZM490.969 72.5469V81H489.516V72.5469H490.969ZM489.406 70.3047C489.406 70.0703 489.477 69.8724 489.617 69.7109C489.763 69.5495 489.977 69.4688 490.258 69.4688C490.534 69.4688 490.745 69.5495 490.891 69.7109C491.042 69.8724 491.117 70.0703 491.117 70.3047C491.117 70.5286 491.042 70.7214 490.891 70.8828C490.745 71.0391 490.534 71.1172 490.258 71.1172C489.977 71.1172 489.763 71.0391 489.617 70.8828C489.477 70.7214 489.406 70.5286 489.406 70.3047ZM492.906 76.8672V76.6875C492.906 76.0781 492.995 75.513 493.172 74.9922C493.349 74.4661 493.604 74.0104 493.938 73.625C494.271 73.2344 494.674 72.9323 495.148 72.7188C495.622 72.5 496.154 72.3906 496.742 72.3906C497.336 72.3906 497.87 72.5 498.344 72.7188C498.823 72.9323 499.229 73.2344 499.562 73.625C499.901 74.0104 500.159 74.4661 500.336 74.9922C500.513 75.513 500.602 76.0781 500.602 76.6875V76.8672C500.602 77.4766 500.513 78.0417 500.336 78.5625C500.159 79.0833 499.901 79.5391 499.562 79.9297C499.229 80.3151 498.826 80.6172 498.352 80.8359C497.883 81.0495 497.352 81.1562 496.758 81.1562C496.164 81.1562 495.63 81.0495 495.156 80.8359C494.682 80.6172 494.276 80.3151 493.938 79.9297C493.604 79.5391 493.349 79.0833 493.172 78.5625C492.995 78.0417 492.906 77.4766 492.906 76.8672ZM494.352 76.6875V76.8672C494.352 77.2891 494.401 77.6875 494.5 78.0625C494.599 78.4323 494.747 78.7604 494.945 79.0469C495.148 79.3333 495.401 79.5599 495.703 79.7266C496.005 79.888 496.357 79.9688 496.758 79.9688C497.154 79.9688 497.5 79.888 497.797 79.7266C498.099 79.5599 498.349 79.3333 498.547 79.0469C498.745 78.7604 498.893 78.4323 498.992 78.0625C499.096 77.6875 499.148 77.2891 499.148 76.8672V76.6875C499.148 76.2708 499.096 75.8776 498.992 75.5078C498.893 75.1328 498.742 74.8021 498.539 74.5156C498.341 74.224 498.091 73.9948 497.789 73.8281C497.492 73.6615 497.143 73.5781 496.742 73.5781C496.346 73.5781 495.997 73.6615 495.695 73.8281C495.398 73.9948 495.148 74.224 494.945 74.5156C494.747 74.8021 494.599 75.1328 494.5 75.5078C494.401 75.8776 494.352 76.2708 494.352 76.6875ZM503.859 74.3516V81H502.414V72.5469H503.781L503.859 74.3516ZM503.516 76.4531L502.914 76.4297C502.919 75.8516 503.005 75.3177 503.172 74.8281C503.339 74.3333 503.573 73.9036 503.875 73.5391C504.177 73.1745 504.536 72.8932 504.953 72.6953C505.375 72.4922 505.841 72.3906 506.352 72.3906C506.768 72.3906 507.143 72.4479 507.477 72.5625C507.81 72.6719 508.094 72.849 508.328 73.0938C508.568 73.3385 508.75 73.6562 508.875 74.0469C509 74.4323 509.062 74.9036 509.062 75.4609V81H507.609V75.4453C507.609 75.0026 507.544 74.6484 507.414 74.3828C507.284 74.112 507.094 73.9167 506.844 73.7969C506.594 73.6719 506.286 73.6094 505.922 73.6094C505.562 73.6094 505.234 73.6849 504.938 73.8359C504.646 73.987 504.393 74.1953 504.18 74.4609C503.971 74.7266 503.807 75.0312 503.688 75.375C503.573 75.7135 503.516 76.0729 503.516 76.4531Z" fill="black"/>
</svg>
